Coordinates
version=1
nRows=16
nColumns=36
inDegrees=yes

Units are S.I. units (second, meters, Newtons, ...)
If the header above contains a line with 'inDegrees', this indicates whether rotational values are in degrees (yes) or radians (no).

endheader
time	pelvis_tilt	pelvis_list	pelvis_rotation	pelvis_tx	pelvis_ty	pelvis_tz	hip_flexion_r	hip_adduction_r	hip_rotation_r	knee_angle_r	knee_angle_r_beta	ankle_angle_r	subtalar_angle_r	mtp_angle_r	hip_flexion_l	hip_adduction_l	hip_rotation_l	knee_angle_l	knee_angle_l_beta	ankle_angle_l	subtalar_angle_l	mtp_angle_l	lumbar_extension	lumbar_bending	lumbar_rotation	arm_flex_r	arm_add_r	arm_rot_r	elbow_flex_r	pro_sup_r	arm_flex_l	arm_add_l	arm_rot_l	elbow_flex_l	pro_sup_l
      2.90000000	    -25.41324347	     -0.96448095	      0.76508084	      0.87978920	      0.60835441	     -0.59500716	     95.13259307	     -4.69026817	      6.08523648	     94.11173405	      1.64255962	     24.48018067	     -5.47641307	     -7.49999987	     95.59299985	    -11.61930613	      9.23715844	     96.25510140	      1.67996844	     21.79655556	     -8.33358868	     -7.49999987	    -42.55940841	      0.01480608	      2.74589498	     78.73359225	    -19.94163135	     12.60302692	    110.94238977	     96.65384390	     75.42980387	    -24.67245774	     24.04158601	    114.64329833	     92.53825190
      2.91666670	    -26.00391799	     -1.39282396	      0.79927402	      0.88099032	      0.58495775	     -0.59270534	     98.52542833	     -4.80639457	      6.25851726	     97.64793027	      1.70427789	     25.36828145	     -4.50220022	     -7.49999987	     99.10050896	    -11.22169173	     10.68334595	     99.76463264	      1.74122132	     22.18742560	     -7.85042730	     -7.49999987	    -43.63798865	      0.30589159	      3.48555893	     82.19956915	    -20.69789993	     15.16638106	    107.43548341	     97.10186184	     78.84954521	    -23.76143399	     25.35406836	    112.28571782	     93.48363718
      2.93333330	    -26.88533533	     -1.46378465	      0.79523290	      0.88241988	      0.56774347	     -0.59528051	    101.92681767	     -4.86097240	      6.78669961	    100.79427513	      1.75919197	     25.72572502	     -4.31311178	     -7.49999987	    102.40704948	    -10.97132157	     11.61360805	    102.92165937	      1.79632183	     22.36536177	     -7.55081779	     -7.49999987	    -44.18923193	      0.19716112	      3.72444421	     85.20071807	    -20.21080659	     15.20708752	    107.13229532	     97.19492594	     81.63527673	    -22.69020878	     25.36260880	    112.35955981	     93.69768671
      2.95000000	    -27.74136211	     -1.86579637	      0.79675505	      0.88488375	      0.55428943	     -0.59683800	    104.52114503	     -5.26013954	      6.75665532	    103.36202268	      1.80400762	     26.55814611	     -3.36767728	     -7.49999987	    105.22388503	    -10.79700979	     12.66340861	    105.58098427	      1.84273580	     23.09592517	     -6.00814408	     -7.49999987	    -44.85012525	      0.35274937	      4.77601022	     87.24466526	    -22.03819801	     17.59200825	    104.76584738	     96.45547367	     83.00486515	    -21.59614237	     27.44448611	    111.20690381	     93.92006906
      2.96666670	    -28.78944472	     -2.15992295	      1.00881846	      0.88248930	      0.55103455	     -0.60186128	    106.52505675	     -6.10714335	      6.70754723	    104.77768546	      1.82871559	     27.10036268	     -2.74505487	     -7.49999987	    107.33930750	    -10.33197677	     13.02504248	    107.02621815	      1.86795989	     22.93727352	     -5.42451797	     -7.49999987	    -45.52708594	      0.81386983	      5.56610732	     90.06383141	    -22.55843785	     18.51221264	    102.66928772	     95.55923230	     84.91484389	    -19.81281503	     28.85315474	    109.24500453	     94.01051095
      2.98333330	    -29.44546699	     -2.16647035	      1.04428493	      0.89101409	      0.54643336	     -0.60463471	    107.82660237	     -6.77597413	      6.78227450	    105.89334425	      1.84818751	     27.55291833	     -2.46432227	     -7.49999987	    108.45712214	    -10.29789565	     12.89782415	    107.98940972	      1.88477076	     22.89099854	     -4.93043684	     -7.49999987	    -46.09846243	      0.86586746	      5.85039009	     90.71350549	    -22.19168057	     19.02428591	    102.37086540	     95.33422572	     84.34936888	    -18.52233774	     28.76210065	    109.04249291	     94.04827000
      3.00000000	    -30.40761919	     -2.66587362	      0.99296049	      0.89564172	      0.54630974	     -0.60091902	    108.67514804	     -7.40968974	      6.25554992	    106.31050893	      1.85546841	     28.13106011	     -1.75667671	     -7.49999987	    109.63285874	    -10.43655795	     13.15400925	    108.46064214	      1.89299531	     22.98500973	     -4.27360439	     -7.49999987	    -46.28296488	      1.28632163	      6.45440841	     93.04950357	    -21.73507812	     20.47768773	     99.93673362	     93.45493674	     83.04558372	    -18.46286893	     27.46922627	    109.25574954	     94.67194295
      3.01666670	    -31.14293175	     -2.81381736	      0.92927316	      0.89911516	      0.54633605	     -0.60842295	    109.00319361	     -8.17520415	      5.88561098	    106.37477985	      1.85659015	     28.87852659	     -1.28117501	     -7.49999987	    110.10795076	    -10.94163398	     12.63796022	    108.51748666	      1.89398744	     23.21886535	     -3.60421544	     -7.49999987	    -46.21814524	      1.49112066	      6.58367262	     93.70623021	    -21.40716757	     20.33648628	     99.27608759	     93.23676410	     82.73496000	    -17.12037742	     27.35413556	    110.02111244	     94.88327720
      3.03333330	    -31.95199989	     -3.10360860	      0.90470203	      0.89883578	      0.54919172	     -0.60953848	    109.06545564	     -8.93919700	      5.28386512	    105.93084155	      1.84884196	     29.45044383	     -0.76499727	     -7.49999987	    110.48994911	    -11.35110202	     12.09530889	    108.16632645	      1.88785854	     23.22767116	     -3.23011027	     -7.49999987	    -46.01730806	      1.92311235	      6.83663406	     95.21820096	    -21.04166932	     20.60572885	     99.19763821	     91.56052615	     83.41482334	    -16.89619383	     27.41458706	    110.56202692	     93.93888373
      3.05000000	    -32.59317472	     -3.24996130	      0.96383773	      0.89963960	      0.54932352	     -0.60937350	    108.89399364	     -9.40612253	      4.85927736	    105.34935107	      1.83869304	     29.65015464	     -0.90646981	     -7.49999987	    110.45023803	    -11.58121800	     11.51898274	    107.57165842	      1.87747962	     23.44636438	     -3.21135230	     -7.49999987	    -45.27504828	      2.27911744	      6.64569907	     95.98414568	    -20.58286641	     20.43408865	     98.52501340	     90.41268388	     84.66397812	    -16.80828358	     27.53447319	    109.61814594	     92.95318071
      3.06666670	    -32.83567024	     -3.44240646	      0.91028080	      0.90627819	      0.55274832	     -0.61263443	    108.02574095	     -9.57449726	      4.44677153	    104.64393580	      1.82638122	     30.06298061	     -0.42754955	     -7.49999987	    109.78647586	    -11.63254939	     11.37781507	    106.93521649	      1.86637161	     24.10326084	     -2.72420855	     -7.49999987	    -44.19438444	      2.50531323	      6.25298283	     94.86151089	    -20.91643616	     20.64509992	     99.06444920	     89.92048902	     85.80273443	    -18.00492681	     28.41318338	    110.30200377	     92.97599289
      3.08333330	    -33.13841297	     -3.36962613	      0.75854238	      0.91577007	      0.55901631	     -0.60440049	    107.05152997	     -8.95793022	      4.40855087	    103.90961037	      1.81356483	     30.26431721	     -0.80882080	     -7.49999987	    108.80071696	    -11.78216714	     11.31908178	    106.11408352	      1.85204014	     24.82121360	     -2.63516774	     -7.49999987	    -42.76361608	      2.03981155	      5.77288779	     94.31432089	    -20.42572373	     20.36786329	    102.68314005	     81.49653779	     88.15285768	    -20.01211811	     29.73183122	    113.31262501	     93.57923622
      3.10000000	    -33.24343806	     -3.49474757	      0.67845590	      0.92299245	      0.56961811	     -0.59542200	    105.27361498	     -7.84209940	      4.18066682	    102.71229424	      1.79266772	     30.59024775	     -1.78169360	     -7.49999987	    107.16140728	    -11.90147489	     11.64527528	    104.93183139	      1.83140595	     25.56076883	     -2.78991031	     -7.49999987	    -41.59817137	      1.46975499	      5.89970793	     95.18492404	    -19.90779693	     19.84648281	    104.35092051	     81.10772304	     90.19797393	    -21.43911076	     29.20929525	    113.32376288	     93.16965771
      3.11666670	    -33.52881941	     -3.47232471	      0.87732432	      0.91841345	      0.59334732	     -0.61288485	    102.95244837	     -7.64068642	      4.18179326	     99.82613084	      1.74229466	     30.66323130	     -2.20335797	     -7.49999987	    104.95846652	    -11.27351368	     10.99017285	    102.38416217	      1.78694073	     24.76180220	     -4.29792427	     -7.49999987	    -41.08637302	      1.61440998	      5.98136534	     97.33921589	    -21.85938282	     20.81981846	    105.18844973	     79.86266078	     93.38561506	    -21.26098831	     30.66507590	    112.84912350	     91.18721352
      3.13333330	    -33.50629346	     -3.45982797	      0.35940785	      0.96667276	      0.61882073	     -0.60286172	     97.95266671	     -6.48283965	      3.71077014	     95.98739921	      1.67529616	     31.86962815	     -3.18231084	     -7.49999987	    100.23042983	    -11.80194972	     10.64516274	     98.79884596	      1.72436516	     25.75671204	     -4.07202999	     -7.49999987	    -39.66774445	      1.09378368	      6.46500438	     93.34099144	    -22.54550885	     21.14984851	    108.90316886	     78.57765670	     88.56044313	    -22.07105121	     28.96578174	    115.17941686	     90.09209873
      3.15000000	    -33.13152212	     -3.34686871	      0.21866894	      0.96458840	      0.62926967	     -0.61490196	     93.32719793	     -6.06463959	      3.65483578	     92.35584624	      1.61191360	     32.46094812	     -4.15267361	     -7.49999987	     95.81836754	    -11.69074626	      9.88992708	     95.33330278	      1.66388002	     26.37197095	     -4.52146750	     -7.49999987	    -38.58506319	      1.40768681	      6.74883758	     92.29715254	    -23.74755129	     20.24889838	    111.51293946	     77.85312117	     87.27741538	    -22.00025447	     28.15493407	    116.86157844	     89.31724994
